<svg width="192" height="42" viewBox="0 0 192 42" fill="none" xmlns="http://www.w3.org/2000/svg">
  <path d="M63.5896 37.6775C63.8234 37.6775 64.0129 37.8687 64.0129 38.1046V40.7331C64.0129 40.969 63.8234 41.1602 63.5896 41.1602H49.9481C49.7143 41.1602 49.5248 40.969 49.5248 40.7331V21.9368C49.5248 21.7009 49.7143 21.5097 49.9481 21.5097H63.3923C63.6261 21.5097 63.8156 21.7009 63.8156 21.9368V24.5653C63.8156 24.8012 63.6261 24.9924 63.3923 24.9924H53.6688C53.435 24.9924 53.2455 25.1836 53.2455 25.4195V28.7559C53.2455 28.9918 53.435 29.183 53.6688 29.183H61.8421C62.0758 29.183 62.2653 29.3742 62.2653 29.6101V32.2387C62.2653 32.4745 62.0758 32.6657 61.8421 32.6657H53.6688C53.435 32.6657 53.2455 32.857 53.2455 33.0928V37.2504C53.2455 37.4863 53.435 37.6775 53.6688 37.6775H63.5896Z" fill="white" />
  <path d="M82.7404 31.3349C82.7404 37.3377 79.2734 41.1602 73.9178 41.1602H67.097C66.8633 41.1602 66.6738 40.969 66.6738 40.7331V21.9368C66.6738 21.7009 66.8633 21.5097 67.097 21.5097H73.9178C79.3579 21.5097 82.7404 25.2756 82.7404 31.3349ZM79.0197 31.3066C79.0197 28.4185 78.1177 24.9924 73.9178 24.9924H70.8177C70.584 24.9924 70.3944 25.1836 70.3944 25.4195V37.2504C70.3944 37.4863 70.584 37.6775 70.8177 37.6775H73.9178C78.3432 37.6775 79.0197 33.6851 79.0197 31.3066Z" fill="white" />
  <path d="M99.962 21.5097C100.196 21.5097 100.385 21.7009 100.385 21.9368V33.3736C100.385 38.3854 97.7639 41.5 92.8311 41.5C87.8984 41.5 85.3052 38.3854 85.3052 33.3736V21.9368C85.3052 21.7009 85.4947 21.5097 85.7285 21.5097H88.6026C88.8364 21.5097 89.0259 21.7009 89.0259 21.9368V33.4869C89.0259 36.4033 90.2943 37.8757 92.8311 37.8757C95.368 37.8757 96.6364 36.4033 96.6364 33.4869V21.9368C96.6364 21.7009 96.8259 21.5097 97.0597 21.5097H99.962Z" fill="white" />
  <path d="M107.132 21.5097C107.366 21.5097 107.556 21.7009 107.556 21.9368V37.2504C107.556 37.4863 107.745 37.6775 107.979 37.6775H116.857C117.091 37.6775 117.28 37.8687 117.28 38.1046V40.7331C117.28 40.969 117.091 41.1602 116.857 41.1602H104.23C103.996 41.1602 103.807 40.969 103.807 40.7331V21.9368C103.807 21.7009 103.996 21.5097 104.23 21.5097H107.132Z" fill="white" />
  <path d="M124.674 33.5327C124.64 33.5955 124.622 33.666 124.622 33.7376V40.7331C124.622 40.969 124.433 41.1602 124.199 41.1602H121.297C121.063 41.1602 120.874 40.969 120.874 40.7331V33.7376C120.874 33.666 120.856 33.5955 120.822 33.5327L114.648 22.1416C114.494 21.857 114.698 21.5097 115.02 21.5097H118.246C118.405 21.5097 118.551 21.6001 118.623 21.7435L122.358 29.1709C122.514 29.4822 122.955 29.4828 123.112 29.1719L126.872 21.7425C126.945 21.5996 127.09 21.5097 127.249 21.5097H130.476C130.798 21.5097 131.002 21.857 130.847 22.1416L124.674 33.5327Z" fill="white" />
  <path d="M146.334 24.5653C146.334 24.8012 146.144 24.9924 145.91 24.9924H141.514C141.28 24.9924 141.091 25.1836 141.091 25.4195V40.7331C141.091 40.969 140.901 41.1602 140.668 41.1602H137.794C137.56 41.1602 137.37 40.969 137.37 40.7331V25.4195C137.37 25.1836 137.181 24.9924 136.947 24.9924H132.551C132.317 24.9924 132.127 24.8012 132.127 24.5653V21.9368C132.127 21.7009 132.317 21.5097 132.551 21.5097H145.91C146.144 21.5097 146.334 21.7009 146.334 21.9368V24.5653Z" fill="white" />
  <path d="M151.974 21.5097C152.208 21.5097 152.398 21.7009 152.398 21.9368V40.7331C152.398 40.969 152.208 41.1602 151.974 41.1602H149.1C148.866 41.1602 148.677 40.969 148.677 40.7331V21.9368C148.677 21.7009 148.866 21.5097 149.1 21.5097H151.974Z" fill="white" />
  <path d="M172.952 34.9309C173.238 34.9309 173.441 35.2113 173.341 35.4813C171.977 39.1586 168.787 41.5 164.649 41.5C159.322 41.5 155.178 36.9979 155.178 31.25C155.178 25.5021 159.322 21 164.649 21C168.87 21 172.04 23.2927 173.375 26.9936C173.473 27.263 173.269 27.5407 172.985 27.5407H169.788C169.627 27.5407 169.481 27.4479 169.404 27.3056C168.495 25.6412 166.804 24.4261 164.649 24.4261C161.436 24.4261 158.899 27.5407 158.899 31.25C158.899 34.9876 161.436 38.1022 164.649 38.1022C166.777 38.1022 168.493 36.8352 169.404 35.1661C169.481 35.0238 169.627 34.9309 169.788 34.9309H172.952Z" fill="white" />
  <path d="M187 37.5142C186.941 37.341 186.78 37.2244 186.599 37.2244H179.398C179.216 37.2244 179.055 37.341 178.997 37.5142L177.867 40.8705C177.809 41.0437 177.648 41.1602 177.466 41.1602H174.42C174.128 41.1602 173.924 40.8697 174.021 40.592L180.545 21.7956C180.605 21.6243 180.765 21.5097 180.945 21.5097H185.052C185.231 21.5097 185.392 21.6243 185.451 21.7956L191.976 40.592C192.072 40.8697 191.868 41.1602 191.576 41.1602H188.53C188.349 41.1602 188.188 41.0437 188.129 40.8705L187 37.5142ZM185.126 33.7417C185.417 33.7417 185.621 33.4536 185.527 33.1765L183.385 26.8541C183.254 26.4689 182.714 26.4689 182.584 26.8541L180.441 33.1765C180.348 33.4536 180.552 33.7417 180.842 33.7417H185.126Z" fill="white" />
  <path d="M0 0.927084C0 0.691213 0.189513 0.5 0.423289 0.5H40.2124C40.4462 0.5 40.6357 0.691212 40.6357 0.927083V41.0729C40.6357 41.3088 40.4462 41.5 40.2124 41.5H0.42329C0.189514 41.5 0 41.3088 0 41.0729V0.927084Z" fill="#212121" />
  <path d="M25.8208 18.8646C25.8208 18.6287 26.0103 18.4375 26.2441 18.4375H32.1702C32.4039 18.4375 32.5934 18.6287 32.5934 18.8646V41.5H25.8208V18.8646Z" fill="white" />
  <path d="M25.8208 9.04167C25.8208 8.80579 26.0103 8.61458 26.2441 8.61458H32.1702C32.4039 8.61458 32.5934 8.80579 32.5934 9.04167V15.0208C32.5934 15.2567 32.4039 15.4479 32.1702 15.4479H26.2441C26.0103 15.4479 25.8208 15.2567 25.8208 15.0208V9.04167Z" fill="#0047FF" />
  <path d="M13.5454 9.04167C13.5454 8.80579 13.735 8.61458 13.9687 8.61458H19.8948C20.1286 8.61458 20.3181 8.80579 20.3181 9.04167V41.5H13.5454V9.04167Z" fill="white" />
  <path d="M9.81805 13.7059C9.92023 13.4967 10.1699 13.4088 10.3789 13.5086L13.5453 15.0208V21.9449L4.32247 41.5L0.42329 41.5C0.189514 41.5 0 41.3088 0 41.0729L2.80855e-05 33.8125L9.81805 13.7059Z" fill="white" />
</svg>