<svg width="454" height="98" viewBox="0 0 454 98" fill="none" xmlns="http://www.w3.org/2000/svg">
<path d="M150.228 87.0497C150.78 87.0497 151.228 87.4974 151.228 88.0497V94.2044C151.228 94.7567 150.78 95.2044 150.228 95.2044H118C117.448 95.2044 117 94.7567 117 94.2044V50.1934C117 49.6411 117.448 49.1934 118 49.1934H149.761C150.314 49.1934 150.761 49.6411 150.761 50.1934V56.3481C150.761 56.9003 150.314 57.3481 149.761 57.3481H126.79C126.238 57.3481 125.79 57.7958 125.79 58.3481V66.1602C125.79 66.7125 126.238 67.1602 126.79 67.1602H146.099C146.651 67.1602 147.099 67.6079 147.099 68.1602V74.3149C147.099 74.8672 146.651 75.3149 146.099 75.3149H126.79C126.238 75.3149 125.79 75.7626 125.79 76.3149V86.0497C125.79 86.602 126.238 87.0497 126.79 87.0497H150.228Z" fill="white" style="fill:white;fill-opacity:1;"/>
<path d="M195.47 72.1989C195.47 86.2542 187.28 95.2044 174.627 95.2044H158.514C157.961 95.2044 157.514 94.7567 157.514 94.2044V50.1934C157.514 49.6411 157.961 49.1934 158.514 49.1934H174.627C187.479 49.1934 195.47 58.0111 195.47 72.1989ZM186.68 72.1326C186.68 65.3702 184.549 57.3481 174.627 57.3481H167.304C166.751 57.3481 166.304 57.7958 166.304 58.3481V86.0497C166.304 86.602 166.751 87.0497 167.304 87.0497H174.627C185.082 87.0497 186.68 77.7017 186.68 72.1326Z" fill="white" style="fill:white;fill-opacity:1;"/>
<path d="M236.155 49.1934C236.708 49.1934 237.155 49.6411 237.155 50.1934V76.9724C237.155 88.7072 230.963 96 219.309 96C207.656 96 201.529 88.7072 201.529 76.9724V50.1934C201.529 49.6411 201.977 49.1934 202.529 49.1934H209.319C209.872 49.1934 210.319 49.6411 210.319 50.1934V77.2376C210.319 84.0663 213.316 87.5138 219.309 87.5138C225.302 87.5138 228.299 84.0663 228.299 77.2376V50.1934C228.299 49.6411 228.747 49.1934 229.299 49.1934H236.155Z" fill="white" style="fill:white;fill-opacity:1;"/>
<path d="M253.096 49.1934C253.648 49.1934 254.096 49.6411 254.096 50.1934V86.0497C254.096 86.602 254.543 87.0497 255.096 87.0497H276.069C276.622 87.0497 277.069 87.4974 277.069 88.0497V94.2044C277.069 94.7567 276.622 95.2044 276.069 95.2044H246.239C245.687 95.2044 245.239 94.7567 245.239 94.2044V50.1934C245.239 49.6411 245.687 49.1934 246.239 49.1934H253.096Z" fill="white" style="fill:white;fill-opacity:1;"/>
<path d="M294.537 77.3448C294.457 77.492 294.415 77.6569 294.415 77.8246V94.2044C294.415 94.7567 293.967 95.2044 293.415 95.2044H286.558C286.006 95.2044 285.558 94.7567 285.558 94.2044V77.8246C285.558 77.6569 285.516 77.492 285.435 77.3448L270.852 50.6731C270.487 50.0067 270.969 49.1934 271.729 49.1934H279.35C279.727 49.1934 280.072 49.405 280.242 49.741L289.064 67.1318C289.434 67.8608 290.475 67.8622 290.847 67.1342L299.73 49.7386C299.901 49.404 300.245 49.1934 300.62 49.1934H308.244C309.003 49.1934 309.485 50.0067 309.121 50.6731L294.537 77.3448Z" fill="white" style="fill:white;fill-opacity:1;"/>
<path d="M345.707 56.3481C345.707 56.9003 345.259 57.3481 344.707 57.3481H334.321C333.768 57.3481 333.321 57.7958 333.321 58.3481V94.2044C333.321 94.7567 332.873 95.2044 332.321 95.2044H325.531C324.978 95.2044 324.531 94.7567 324.531 94.2044V58.3481C324.531 57.7958 324.083 57.3481 323.531 57.3481H313.145C312.593 57.3481 312.145 56.9003 312.145 56.3481V50.1934C312.145 49.6411 312.593 49.1934 313.145 49.1934H344.707C345.259 49.1934 345.707 49.6411 345.707 50.1934V56.3481Z" fill="white" style="fill:white;fill-opacity:1;"/>
<path d="M359.032 49.1934C359.585 49.1934 360.032 49.6411 360.032 50.1934V94.2044C360.032 94.7567 359.585 95.2044 359.032 95.2044H352.242C351.69 95.2044 351.242 94.7567 351.242 94.2044V50.1934C351.242 49.6411 351.69 49.1934 352.242 49.1934H359.032Z" fill="white" style="fill:white;fill-opacity:1;"/>
<path d="M408.59 80.6188C409.265 80.6188 409.746 81.2752 409.509 81.9074C406.288 90.5176 398.752 96 388.976 96C376.39 96 366.601 85.4586 366.601 72C366.601 58.5414 376.39 48 388.976 48C398.948 48 406.436 53.3683 409.591 62.0337C409.821 62.6647 409.341 63.3149 408.669 63.3149H401.117C400.737 63.3149 400.392 63.0975 400.208 62.7642C398.062 58.8672 394.066 56.0221 388.976 56.0221C381.384 56.0221 375.391 63.3149 375.391 72C375.391 80.7514 381.384 88.0442 388.976 88.0442C394.003 88.0442 398.057 85.0776 400.209 81.1694C400.392 80.8361 400.737 80.6188 401.117 80.6188H408.59Z" fill="white" style="fill:white;fill-opacity:1;"/>
<path d="M441.778 86.6674C441.64 86.2618 441.259 85.989 440.831 85.989H423.818C423.39 85.989 423.009 86.2618 422.872 86.6674L420.203 94.526C420.065 94.9316 419.684 95.2044 419.256 95.2044H412.059C411.37 95.2044 410.888 94.5241 411.116 93.8739L426.53 49.8628C426.67 49.4618 427.049 49.1934 427.474 49.1934H437.176C437.601 49.1934 437.979 49.4618 438.12 49.8628L453.534 93.8739C453.762 94.5241 453.279 95.2044 452.59 95.2044H445.394C444.965 95.2044 444.585 94.9316 444.447 94.526L441.778 86.6674ZM437.352 77.8343C438.038 77.8343 438.52 77.1597 438.298 76.5108L433.238 61.7072C432.929 60.8052 431.654 60.8052 431.345 61.7072L426.285 76.5108C426.063 77.1597 426.545 77.8343 427.231 77.8343H437.352Z" fill="white" style="fill:white;fill-opacity:1;"/>
<path d="M0 1C0 0.447717 0.447715 0 1 0H95C95.5523 0 96 0.447715 96 1V95C96 95.5523 95.5523 96 95 96H1C0.447717 96 0 95.5523 0 95V1Z" fill="white" style="fill:white;fill-opacity:1;"/>
<path d="M61.0005 43C61.0005 42.4477 61.4482 42 62.0005 42H76.0005C76.5528 42 77.0005 42.4477 77.0005 43V96H61.0005V43Z" fill="black" style="fill:black;fill-opacity:1;"/>
<path d="M61.0005 20C61.0005 19.4477 61.4482 19 62.0005 19H76.0005C76.5528 19 77.0005 19.4477 77.0005 20V34C77.0005 34.5523 76.5528 35 76.0005 35H62.0005C61.4482 35 61.0005 34.5523 61.0005 34V20Z" fill="#0047FF" style="fill:#0047FF;fill:color(display-p3 0.0000 0.2800 1.0000);fill-opacity:1;"/>
<path d="M32.0005 20C32.0005 19.4477 32.4482 19 33.0005 19H47.0005C47.5528 19 48.0005 19.4477 48.0005 20V96H32.0005V20Z" fill="black" style="fill:black;fill-opacity:1;"/>
<path d="M23.1947 30.9211C23.4361 30.4312 24.0259 30.2255 24.5196 30.4592L32.0002 34V50.2124L10.2116 96L1 96C0.447717 96 0 95.5523 0 95L6.63506e-05 78L23.1947 30.9211Z" fill="black" style="fill:black;fill-opacity:1;"/>
</svg>
